<?xml version="1.0" encoding="utf-8"?>
<!-- Generator: Adobe Illustrator 27.5.0, SVG Export Plug-In . SVG Version: 6.00 Build 0)  -->
<svg version="1.1" xmlns="http://www.w3.org/2000/svg" xmlns:xlink="http://www.w3.org/1999/xlink" x="0px" y="0px"
	 viewBox="0 0 750 500" style="enable-background:new 0 0 750 500;" xml:space="preserve">
<g id="BACKGROUND">
	<rect style="fill:#CCDCFF;" width="750" height="500"/>
</g>
<g id="OBJECTS">
	<g>
		<path style="fill:#B7CAF7;" d="M750,462.092V183.297c-22.115,1.757-39.653,19.678-40.68,41.912
			c-2.578-0.312-5.202-0.477-7.865-0.477c-28.61,0-52.864,18.567-61.298,44.266c-4.727-2.398-10.073-3.759-15.742-3.759
			c-17.437,0-31.871,12.795-34.369,29.476c-5.222-1.606-10.769-2.473-16.52-2.473c-15.4,0-29.345,6.202-39.461,16.232
			c-1.342-0.837-2.715-1.629-4.11-2.385c-9.163-6.399-20.302-10.163-32.326-10.163c-20.293,0-38.08,10.696-48.055,26.753
			c-6.04-3.731-13.155-5.889-20.777-5.889c-8.662,0-16.668,2.789-23.187,7.507c-9.622-12.482-24.713-20.532-41.693-20.532
			c-18.434,0-34.643,9.485-44.042,23.834c-6.765-4.232-14.756-6.687-23.325-6.687c-5.059,0-9.914,0.864-14.44,2.434
			c-9.892-16.429-27.895-27.42-48.47-27.42c-14.964,0-28.561,5.823-38.674,15.315c-4.546-6.848-12.333-11.374-21.19-11.374
			c-6.347,0-12.146,2.325-16.598,6.16c-3.629-19.694-20.933-34.621-41.747-34.621c-7.64,0-14.801,2.021-20.995,5.539
			c-11.656-24.356-35.703-41.692-64.017-43.911c1.326-3.84,2.055-7.956,2.055-12.245c0-18.996-14.125-34.687-32.477-37.263v278.566
			H750z"/>
		<g>
			<path style="fill:#96AAE2;" d="M716.539,253.035l0.836-0.549c-7.811-11.919-7.558-27.114-7.555-27.267l-1-0.023
				C708.816,225.352,708.553,240.85,716.539,253.035z"/>
			<path style="fill:#96AAE2;" d="M657.531,294.277l0.994-0.102c-1.905-18.645-18.013-25.57-18.175-25.639l-0.385,0.923
				C640.121,269.526,655.688,276.238,657.531,294.277z"/>
			<path style="fill:#96AAE2;" d="M607.884,308.445l0.851-0.523c-5.786-9.432-18.016-13.513-18.534-13.682l-0.31,0.951
				C590.014,295.231,602.292,299.33,607.884,308.445z"/>
			<path style="fill:#96AAE2;" d="M596.241,325.739c3.814-12.888,15.873-21.889,29.323-21.889c10.471,0,20.1,5.27,25.759,14.099
				l0.841-0.539c-5.843-9.117-15.788-14.559-26.6-14.559c-13.891,0-26.342,9.296-30.282,22.605L596.241,325.739z"/>
			<path style="fill:#96AAE2;" d="M750,263.935v1.015c-5.609-1.008-31.274-4.217-43.303,18.667l-0.884-0.465
				C718.015,259.938,743.841,262.864,750,263.935z"/>
			<path style="fill:#96AAE2;" d="M714.595,294.436l0.957-0.293c-2.95-9.667-13.864-15.06-24.851-12.274l0.246,0.969
				C700.122,280.514,711.476,284.214,714.595,294.436z"/>
			<path style="fill:#96AAE2;" d="M337.481,385.617l0.957-0.293c-2.95-9.667-13.864-15.061-24.85-12.274l0.246,0.969
				C323.007,371.695,334.361,375.395,337.481,385.617z"/>
			<path style="fill:#96AAE2;" d="M442.769,373.555l0.407-0.914c-9.23-4.118-20.462,0.578-25.57,10.696l0.893,0.45
				C422.766,375.34,433.009,369.201,442.769,373.555z"/>
			<path style="fill:#96AAE2;" d="M718.662,345.494c7.11-17.962,26.959-18.417,31.338-18.289v-0.999
				c-4.66-0.129-25.216,0.428-32.402,19.288H718.662z"/>
			<path style="fill:#96AAE2;" d="M28.464,328.776c16.797-11.5,29.571-1.599,29.697-1.497l0.625-0.781
				c-0.133-0.106-13.461-10.477-30.886,1.452L28.464,328.776z"/>
			<path style="fill:#96AAE2;" d="M116.93,300.148l0.963-0.268c-2.897-10.435-10.794-18.567-21.126-21.756
				c-13.269-4.099-27.911,1.113-35.598,12.671l0.832,0.555c7.442-11.192,21.618-16.235,34.471-12.27
				C106.477,282.167,114.124,290.043,116.93,300.148z"/>
			<path style="fill:#96AAE2;" d="M9.049,235.025c9.49-1.997,21.234-1.495,21.351-1.492l0.045-0.998
				c-0.121-0.005-11.988-0.512-21.601,1.512L9.049,235.025z"/>
			<path style="fill:#96AAE2;" d="M0,288.136c5.027,0.235,35.608,2.966,43.097,34.43l-0.972,0.232
				C34.813,292.081,4.956,289.373,0,289.137V288.136z"/>
			<path style="fill:#96AAE2;" d="M603.228,340.952h1c0-10.623-8.642-19.265-19.265-19.265c-8.628,0-16.263,5.8-18.565,14.104
				l0.963,0.268c2.184-7.873,9.422-13.372,17.603-13.372C595.035,322.687,603.228,330.881,603.228,340.952z"/>
			<path style="fill:#96AAE2;" d="M231.773,351.088c3.814-12.888,15.873-21.889,29.323-21.889c10.471,0,20.1,5.27,25.759,14.099
				l0.841-0.539c-5.843-9.117-15.788-14.559-26.6-14.559c-13.891,0-26.342,9.296-30.282,22.605L231.773,351.088z"/>
			<path style="fill:#96AAE2;" d="M514.945,344.984c-3.814-12.888-15.873-21.889-29.323-21.889c-10.471,0-20.1,5.271-25.759,14.099
				l-0.841-0.539c5.843-9.117,15.788-14.56,26.6-14.56c13.891,0,26.342,9.296,30.282,22.605L514.945,344.984z"/>
			<path style="fill:#96AAE2;" d="M238.76,366.301h1c0-10.623-8.642-19.265-19.265-19.265c-8.628,0-16.263,5.8-18.565,14.105
				l0.963,0.267c2.184-7.873,9.422-13.372,17.603-13.372C230.567,348.036,238.76,356.23,238.76,366.301z"/>
			<path style="fill:#96AAE2;" d="M536.401,353.085l0.856-0.517c-5.494-9.092-17.36-12.018-26.452-6.524
				c-7.384,4.462-10.919,13.375-8.595,21.674l0.962-0.269c-2.203-7.868,1.148-16.318,8.149-20.549
				C519.942,341.69,531.192,344.465,536.401,353.085z"/>
			<path style="fill:#96AAE2;" d="M184.126,340.034c-8.376-17.411-23.708-10.582-24.355-10.281l-0.42-0.908
				c0.166-0.076,16.868-7.555,25.676,10.756L184.126,340.034z"/>
			<path style="fill:#96AAE2;" d="M180.215,332.966l-0.945-0.326c4.365-12.679,15.272-21.697,15.382-21.786l0.633,0.773
				C195.177,311.715,184.486,320.562,180.215,332.966z"/>
			<path style="fill:#96AAE2;" d="M329.825,338.548c-3.41-5.711-10.168-10.492-10.235-10.54l0.574-0.818
				c0.284,0.199,6.998,4.948,10.521,10.845L329.825,338.548z"/>
			<path style="fill:#96AAE2;" d="M397.81,334.034l-0.873-0.486c2.988-5.365,8.145-9.473,8.364-9.645l0.619,0.785
				C405.869,324.73,400.7,328.848,397.81,334.034z"/>
			<path style="fill:#96AAE2;" d="M405.223,340.361c-4.981-6.134-10.987-7.757-18.35-4.958l-0.355-0.935
				c7.714-2.926,14.268-1.156,19.48,5.263L405.223,340.361z"/>
			<path style="fill:#96AAE2;" d="M442.997,336.988l-0.941-0.34c2.887-7.997,7.064-14.19,7.105-14.252l0.828,0.563
				C449.947,323.02,445.838,329.115,442.997,336.988z"/>
			
				<rect x="540.728" y="304.832" transform="matrix(0.5892 -0.808 0.808 0.5892 -31.1123 566.2026)" style="fill:#96AAE2;" width="1.001" height="17.728"/>
		</g>
	</g>
	<g>
		<path style="fill:#FFFFFF;" d="M254.858,76.332l-86.924,248.595c-0.068,0.195-0.282,0.299-0.478,0.23
			c-0.196-0.068-0.299-0.282-0.23-0.478C167.41,324.741,254.526,75.57,254.858,76.332L254.858,76.332z"/>
		<path style="fill:#FFFFFF;" d="M118.916,10.335L31.992,258.93c-0.068,0.195-0.282,0.299-0.478,0.23
			c-0.196-0.068-0.299-0.282-0.23-0.478C31.468,258.744,118.584,9.574,118.916,10.335L118.916,10.335z"/>
		<path style="fill:#FFFFFF;" d="M507.79,289.052l-53.66,153.782c-0.068,0.196-0.282,0.299-0.478,0.23
			c-0.196-0.068-0.299-0.282-0.23-0.478C453.608,442.645,507.458,288.294,507.79,289.052L507.79,289.052z"/>
		<path style="fill:#FFFFFF;" d="M301.862,10.335L214.938,258.93c-0.068,0.195-0.282,0.299-0.478,0.23
			c-0.196-0.068-0.299-0.282-0.23-0.478C214.415,258.744,301.53,9.574,301.862,10.335L301.862,10.335z"/>
		<path style="fill:#FFFFFF;" d="M222.415,69.208L135.49,317.803c-0.068,0.195-0.282,0.298-0.478,0.23
			c-0.196-0.068-0.299-0.282-0.23-0.478C134.967,317.617,222.082,68.447,222.415,69.208L222.415,69.208z"/>
		<path style="fill:#FFFFFF;" d="M141.281,186.106L54.357,434.701c-0.068,0.195-0.282,0.298-0.478,0.23
			c-0.195-0.068-0.299-0.282-0.23-0.478C53.834,434.514,140.948,185.345,141.281,186.106L141.281,186.106z"/>
		<path style="fill:#FFFFFF;" d="M319.28,167.914l-86.924,248.595c-0.068,0.195-0.282,0.299-0.478,0.23
			c-0.196-0.068-0.299-0.282-0.23-0.478C231.832,416.323,318.947,167.152,319.28,167.914L319.28,167.914z"/>
		<path style="fill:#FFFFFF;" d="M368.435,132.08l-86.924,248.595c-0.068,0.195-0.282,0.299-0.478,0.23
			c-0.195-0.068-0.299-0.282-0.23-0.478C280.987,380.489,368.103,131.319,368.435,132.08L368.435,132.08z"/>
		<path style="fill:#FFFFFF;" d="M353.926,238.462l-86.924,248.595c-0.068,0.195-0.282,0.298-0.478,0.23
			c-0.195-0.068-0.299-0.282-0.23-0.478C266.478,486.871,353.594,237.701,353.926,238.462L353.926,238.462z"/>
		<path style="fill:#FFFFFF;" d="M189.17,235.54l-67.022,191.869c-0.068,0.195-0.282,0.299-0.478,0.23
			c-0.195-0.068-0.299-0.282-0.23-0.478C121.625,427.221,188.837,234.781,189.17,235.54L189.17,235.54z"/>
		<path style="fill:#FFFFFF;" d="M491.342,226.225L404.418,474.82c-0.068,0.195-0.282,0.299-0.478,0.23
			c-0.196-0.068-0.299-0.282-0.23-0.478C403.895,474.634,491.01,225.463,491.342,226.225L491.342,226.225z"/>
		<path style="fill:#FFFFFF;" d="M449.873,79.642l-32.031,92.136c-0.068,0.196-0.282,0.299-0.477,0.231
			c-0.196-0.068-0.299-0.282-0.231-0.477C417.321,171.58,449.54,78.891,449.873,79.642L449.873,79.642z"/>
		<path style="fill:#FFFFFF;" d="M325.254,10.338l-32.031,92.136c-0.068,0.196-0.282,0.299-0.477,0.231
			c-0.196-0.068-0.299-0.282-0.231-0.477C292.701,102.276,324.921,9.588,325.254,10.338L325.254,10.338z"/>
		<path style="fill:#FFFFFF;" d="M247.658,30.31l-32.031,92.136c-0.068,0.196-0.282,0.299-0.477,0.231
			c-0.196-0.068-0.299-0.282-0.231-0.477C215.105,122.248,247.325,29.56,247.658,30.31L247.658,30.31z"/>
		<path style="fill:#FFFFFF;" d="M47.876,30.31l-32.031,92.136c-0.068,0.196-0.282,0.299-0.477,0.231
			c-0.196-0.068-0.299-0.282-0.231-0.477C15.324,122.248,47.543,29.56,47.876,30.31L47.876,30.31z"/>
		<path style="fill:#FFFFFF;" d="M205.317,298.541l-32.031,92.136c-0.068,0.196-0.282,0.299-0.477,0.231
			c-0.196-0.068-0.299-0.282-0.231-0.477C172.764,390.479,204.984,297.791,205.317,298.541L205.317,298.541z"/>
		<path style="fill:#FFFFFF;" d="M40.389,121.15l-24.544,70.795c-0.068,0.196-0.281,0.299-0.477,0.231
			c-0.196-0.068-0.299-0.281-0.231-0.477C15.324,191.744,40.057,120.403,40.389,121.15L40.389,121.15z"/>
		<path style="fill:#FFFFFF;" d="M83.836,56.36l-32.031,92.136c-0.068,0.196-0.282,0.299-0.477,0.231
			c-0.196-0.068-0.299-0.282-0.231-0.477C51.284,148.298,83.503,55.61,83.836,56.36L83.836,56.36z"/>
		<path style="fill:#FFFFFF;" d="M165.668,36.118l-32.031,92.136c-0.068,0.196-0.282,0.299-0.477,0.231
			c-0.196-0.068-0.299-0.282-0.231-0.477C133.116,128.056,165.335,35.367,165.668,36.118L165.668,36.118z"/>
		<path style="fill:#FFFFFF;" d="M118.13,142.068l-32.031,92.136c-0.068,0.196-0.282,0.299-0.477,0.231
			c-0.196-0.068-0.299-0.282-0.231-0.477C85.578,234.005,117.797,141.317,118.13,142.068L118.13,142.068z"/>
		<path style="fill:#FFFFFF;" d="M727.893,142.068l-32.031,92.136c-0.068,0.196-0.282,0.299-0.477,0.231
			c-0.196-0.068-0.299-0.282-0.231-0.477C695.341,234.005,727.56,141.317,727.893,142.068L727.893,142.068z"/>
		<path style="fill:#FFFFFF;" d="M89.148,251.389L38.94,395.336c-0.068,0.195-0.282,0.299-0.478,0.23
			c-0.195-0.068-0.299-0.282-0.231-0.478C38.417,395.146,88.816,250.631,89.148,251.389L89.148,251.389z"/>
		<path style="fill:#FFFFFF;" d="M76.229,10.342L59.412,59.113c-0.153,0.445-0.872,0.234-0.709-0.245
			C58.892,58.899,75.9,9.604,76.229,10.342L76.229,10.342z"/>
		<path style="fill:#FFFFFF;" d="M240.05,10.345l-11.878,34.696c-0.155,0.452-0.87,0.231-0.71-0.243
			C227.647,44.826,239.73,9.609,240.05,10.345L240.05,10.345z"/>
		<path style="fill:#FFFFFF;" d="M110.523,107.741l-16.817,48.771c-0.153,0.445-0.872,0.234-0.709-0.245
			C93.186,156.298,110.194,107.003,110.523,107.741L110.523,107.741z"/>
		<path style="fill:#FFFFFF;" d="M730.747,338.381l-16.817,48.771c-0.153,0.445-0.872,0.234-0.709-0.245
			C713.41,386.939,730.418,337.643,730.747,338.381L730.747,338.381z"/>
		<path style="fill:#FFFFFF;" d="M739.522,231.033l-16.817,48.771c-0.153,0.445-0.872,0.234-0.709-0.244
			C722.185,279.59,739.193,230.295,739.522,231.033L739.522,231.033z"/>
		<path style="fill:#FFFFFF;" d="M662.317,10.342l-16.817,48.771c-0.153,0.445-0.872,0.234-0.709-0.245
			C644.98,58.899,661.988,9.604,662.317,10.342L662.317,10.342z"/>
		<path style="fill:#FFFFFF;" d="M428.819,10.342l-16.817,48.771c-0.153,0.445-0.872,0.234-0.709-0.245
			C411.482,58.899,428.49,9.604,428.819,10.342L428.819,10.342z"/>
		<path style="fill:#FFFFFF;" d="M349.775,98.014l-16.817,48.771c-0.153,0.445-0.871,0.234-0.709-0.244
			C332.438,146.572,349.446,97.276,349.775,98.014L349.775,98.014z"/>
		<path style="fill:#FFFFFF;" d="M333.381,376.982l-16.817,48.771c-0.153,0.445-0.871,0.234-0.709-0.245
			C316.044,425.539,333.052,376.244,333.381,376.982L333.381,376.982z"/>
		<path style="fill:#FFFFFF;" d="M420.044,262.902l-20.272,58.618c-0.15,0.44-0.873,0.238-0.709-0.245
			C399.252,321.313,419.713,262.16,420.044,262.902L420.044,262.902z"/>
		<path style="fill:#FFFFFF;" d="M492.438,428.447l-20.272,58.618c-0.151,0.439-0.873,0.238-0.709-0.245
			C471.646,486.859,492.107,427.705,492.438,428.447L492.438,428.447z"/>
		<path style="fill:#FFFFFF;" d="M402.285,212.979l-30.537,87.878c-0.068,0.196-0.282,0.299-0.478,0.231
			c-0.195-0.068-0.299-0.282-0.231-0.477C371.226,300.659,401.952,212.228,402.285,212.979L402.285,212.979z"/>
		<path style="fill:#FFFFFF;" d="M273.669,357.423L243.132,445.3c-0.068,0.196-0.282,0.299-0.478,0.231
			c-0.195-0.068-0.299-0.282-0.231-0.477C242.61,445.103,273.336,356.673,273.669,357.423L273.669,357.423z"/>
		<path style="fill:#FFFFFF;" d="M278.803,212.979l-20.271,58.618c-0.151,0.44-0.873,0.238-0.709-0.245
			C258.011,271.39,278.472,212.236,278.803,212.979L278.803,212.979z"/>
		<path style="fill:#FFFFFF;" d="M134.132,274.924l-20.271,58.618c-0.151,0.44-0.873,0.238-0.709-0.245
			C113.34,333.336,133.802,274.182,134.132,274.924L134.132,274.924z"/>
		<path style="fill:#FFFFFF;" d="M384.108,284.907l-20.271,58.618c-0.151,0.44-0.873,0.237-0.709-0.245
			C363.316,343.318,383.777,284.164,384.108,284.907L384.108,284.907z"/>
		<path style="fill:#FFFFFF;" d="M358.605,358.435l-20.271,58.618c-0.151,0.44-0.873,0.238-0.709-0.245
			C337.813,416.846,358.274,357.693,358.605,358.435L358.605,358.435z"/>
		<path style="fill:#FFFFFF;" d="M285.953,129.328l-20.271,58.618c-0.151,0.439-0.873,0.238-0.709-0.245
			C265.161,187.74,285.622,128.586,285.953,129.328L285.953,129.328z"/>
		<path style="fill:#FFFFFF;" d="M392.019,36.118l-20.271,58.618c-0.151,0.439-0.873,0.238-0.709-0.245
			C371.227,94.529,391.688,35.375,392.019,36.118L392.019,36.118z"/>
		<path style="fill:#FFFFFF;" d="M175.935,428.447l-20.271,58.618c-0.151,0.439-0.873,0.238-0.709-0.245
			C155.143,486.859,175.604,427.705,175.935,428.447L175.935,428.447z"/>
		<path style="fill:#FFFFFF;" d="M207.943,389.668l-20.271,58.618c-0.151,0.44-0.873,0.238-0.709-0.245
			C187.151,448.079,207.612,388.926,207.943,389.668L207.943,389.668z"/>
		<path style="fill:#FFFFFF;" d="M311.852,438.011l-20.271,58.618c-0.151,0.44-0.873,0.238-0.709-0.245
			C291.06,496.423,311.522,437.269,311.852,438.011L311.852,438.011z"/>
		<path style="fill:#FFFFFF;" d="M406.527,426.421l-20.271,58.618c-0.151,0.439-0.873,0.238-0.709-0.245
			C385.736,484.832,406.197,425.678,406.527,426.421L406.527,426.421z"/>
		<path style="fill:#FFFFFF;" d="M470.892,106.278l-36.446,104.719c-0.068,0.196-0.282,0.299-0.478,0.231
			c-0.195-0.068-0.299-0.282-0.231-0.478C433.924,210.803,470.56,105.524,470.892,106.278L470.892,106.278z"/>
		<path style="fill:#FFFFFF;" d="M49.561,414.577l-20.272,58.618c-0.151,0.44-0.873,0.238-0.709-0.245
			C28.769,472.988,49.23,413.834,49.561,414.577L49.561,414.577z"/>
		<path style="fill:#FFFFFF;" d="M396.291,339.12l-44.637,128.067c-0.068,0.195-0.282,0.299-0.478,0.231
			c-0.195-0.068-0.299-0.282-0.231-0.477C351.131,466.995,395.958,338.364,396.291,339.12L396.291,339.12z"/>
		<path style="fill:#FFFFFF;" d="M127.738,340.152L76.491,487.057c-0.068,0.195-0.282,0.299-0.478,0.23
			c-0.196-0.068-0.299-0.282-0.231-0.478C75.968,486.868,127.405,339.394,127.738,340.152L127.738,340.152z"/>
		<path style="fill:#FFFFFF;" d="M67.689,212.979L16.442,359.884c-0.068,0.195-0.282,0.299-0.478,0.231
			c-0.196-0.068-0.299-0.282-0.231-0.478C15.92,359.695,67.357,212.221,67.689,212.979L67.689,212.979z"/>
		<path style="fill:#FFFFFF;" d="M201.689,10.337l-51.247,146.905c-0.068,0.196-0.282,0.299-0.478,0.231
			c-0.196-0.068-0.299-0.282-0.23-0.478C149.919,157.052,201.357,9.578,201.689,10.337L201.689,10.337z"/>
		<path style="fill:#FFFFFF;" d="M740.986,10.337l-51.247,146.905c-0.068,0.196-0.282,0.299-0.478,0.231
			c-0.196-0.068-0.299-0.282-0.23-0.478C689.216,157.052,740.654,9.578,740.986,10.337L740.986,10.337z"/>
		<path style="fill:#FFFFFF;" d="M455.665,10.337l-41.945,120.394c-0.068,0.196-0.282,0.299-0.477,0.231
			c-0.196-0.068-0.299-0.282-0.231-0.477C413.197,130.54,455.332,9.581,455.665,10.337L455.665,10.337z"/>
		<path style="fill:#FFFFFF;" d="M362.376,10.336l-52.897,151.608c-0.068,0.195-0.282,0.299-0.478,0.23
			c-0.195-0.068-0.299-0.282-0.23-0.478C308.956,161.755,362.044,9.578,362.376,10.336L362.376,10.336z"/>
		<path style="fill:#FFFFFF;" d="M236.468,278.969l-41.945,120.394c-0.068,0.196-0.282,0.299-0.478,0.231
			c-0.196-0.068-0.299-0.282-0.231-0.478C194,399.172,236.136,278.213,236.468,278.969L236.468,278.969z"/>
		<path style="fill:#FFFFFF;" d="M235.779,354.426L193.834,474.82c-0.068,0.195-0.282,0.299-0.478,0.231
			c-0.195-0.068-0.299-0.282-0.231-0.478C193.311,474.629,235.447,353.67,235.779,354.426L235.779,354.426z"/>
		<path style="fill:#FFFFFF;" d="M482.171,179.936l-86.924,248.595c-0.068,0.195-0.282,0.299-0.478,0.23
			c-0.196-0.068-0.299-0.282-0.23-0.478C394.723,428.345,481.839,179.175,482.171,179.936L482.171,179.936z"/>
		<path style="fill:#FFFFFF;" d="M409.706,96.06l-86.924,248.595c-0.068,0.195-0.282,0.299-0.478,0.23
			c-0.195-0.068-0.298-0.282-0.23-0.478C322.258,344.469,409.374,95.299,409.706,96.06L409.706,96.06z"/>
		<path style="fill:#FFFFFF;" d="M716.75,304.012l-53.66,153.782c-0.068,0.196-0.282,0.299-0.478,0.23
			c-0.196-0.068-0.299-0.282-0.231-0.478C662.568,457.605,716.418,303.254,716.75,304.012L716.75,304.012z"/>
		<path style="fill:#FFFFFF;" d="M524.423,10.335L437.498,258.93c-0.068,0.195-0.282,0.299-0.478,0.23
			c-0.195-0.068-0.299-0.282-0.23-0.478C436.975,258.744,524.09,9.574,524.423,10.335L524.423,10.335z"/>
		<path style="fill:#FFFFFF;" d="M558.943,167.914l-86.924,248.595c-0.068,0.195-0.282,0.299-0.478,0.23
			c-0.196-0.068-0.299-0.282-0.23-0.478C471.495,416.323,558.61,167.152,558.943,167.914L558.943,167.914z"/>
		<path style="fill:#FFFFFF;" d="M590.995,132.08l-86.924,248.595c-0.068,0.195-0.282,0.299-0.478,0.23
			c-0.195-0.068-0.299-0.282-0.23-0.478C503.547,380.489,590.663,131.319,590.995,132.08L590.995,132.08z"/>
		<path style="fill:#FFFFFF;" d="M574.632,238.462l-86.924,248.595c-0.068,0.195-0.282,0.299-0.478,0.23
			c-0.195-0.068-0.299-0.282-0.23-0.478C487.185,486.871,574.3,237.701,574.632,238.462L574.632,238.462z"/>
		<path style="fill:#FFFFFF;" d="M713.903,226.225L626.978,474.82c-0.068,0.195-0.282,0.299-0.478,0.23
			c-0.196-0.068-0.299-0.282-0.23-0.478C626.455,474.634,713.57,225.463,713.903,226.225L713.903,226.225z"/>
		<path style="fill:#FFFFFF;" d="M672.433,79.642l-32.031,92.136c-0.068,0.196-0.282,0.299-0.477,0.231
			c-0.196-0.068-0.299-0.282-0.231-0.477C639.881,171.58,672.1,78.891,672.433,79.642L672.433,79.642z"/>
		<path style="fill:#FFFFFF;" d="M547.814,10.338l-32.031,92.136c-0.068,0.196-0.282,0.299-0.477,0.231
			c-0.196-0.068-0.299-0.282-0.231-0.477C515.262,102.276,547.481,9.588,547.814,10.338L547.814,10.338z"/>
		<path style="fill:#FFFFFF;" d="M572.335,98.014l-16.817,48.771c-0.153,0.445-0.872,0.234-0.709-0.244
			C554.998,146.572,572.006,97.276,572.335,98.014L572.335,98.014z"/>
		<path style="fill:#FFFFFF;" d="M555.941,376.982l-16.817,48.771c-0.153,0.445-0.872,0.234-0.709-0.245
			C538.605,425.539,555.613,376.244,555.941,376.982L555.941,376.982z"/>
		<path style="fill:#FFFFFF;" d="M642.604,262.902l-20.271,58.618c-0.151,0.44-0.873,0.238-0.709-0.245
			C621.812,321.313,642.274,262.16,642.604,262.902L642.604,262.902z"/>
		<path style="fill:#FFFFFF;" d="M534.75,191.055l-20.271,58.618c-0.151,0.44-0.873,0.238-0.709-0.245
			C513.958,249.467,534.419,190.313,534.75,191.055L534.75,191.055z"/>
		<path style="fill:#FFFFFF;" d="M30.018,179.203L9.747,237.822c-0.151,0.44-0.873,0.238-0.709-0.245
			C9.226,237.615,29.688,178.461,30.018,179.203L30.018,179.203z"/>
		<path style="fill:#FFFFFF;" d="M714.998,428.447l-20.271,58.618c-0.151,0.439-0.873,0.238-0.709-0.245
			C694.206,486.859,714.667,427.705,714.998,428.447L714.998,428.447z"/>
		<path style="fill:#FFFFFF;" d="M624.845,212.979l-30.537,87.878c-0.068,0.196-0.282,0.299-0.477,0.231
			c-0.196-0.068-0.299-0.282-0.231-0.477C593.786,300.659,624.513,212.228,624.845,212.979L624.845,212.979z"/>
		<path style="fill:#FFFFFF;" d="M606.668,284.907l-20.271,58.618c-0.151,0.44-0.873,0.237-0.709-0.245
			C585.876,343.318,606.337,284.164,606.668,284.907L606.668,284.907z"/>
		<path style="fill:#FFFFFF;" d="M581.166,358.435l-20.271,58.618c-0.151,0.44-0.873,0.238-0.709-0.245
			C560.374,416.846,580.835,357.693,581.166,358.435L581.166,358.435z"/>
		<path style="fill:#FFFFFF;" d="M508.513,129.328l-20.271,58.618c-0.151,0.439-0.873,0.238-0.709-0.245
			C487.721,187.74,508.182,128.586,508.513,129.328L508.513,129.328z"/>
		<path style="fill:#FFFFFF;" d="M614.579,36.118l-20.271,58.618c-0.151,0.439-0.873,0.238-0.709-0.245
			C593.787,94.529,614.249,35.375,614.579,36.118L614.579,36.118z"/>
		<path style="fill:#FFFFFF;" d="M693.453,106.278l-36.446,104.719c-0.068,0.196-0.282,0.299-0.478,0.231
			c-0.195-0.068-0.299-0.282-0.231-0.478C656.484,210.803,693.12,105.524,693.453,106.278L693.453,106.278z"/>
		<path style="fill:#FFFFFF;" d="M618.851,339.12l-44.637,128.067c-0.068,0.195-0.282,0.299-0.478,0.231
			c-0.195-0.068-0.299-0.282-0.231-0.477C573.691,466.995,618.518,338.364,618.851,339.12L618.851,339.12z"/>
		<path style="fill:#FFFFFF;" d="M678.225,10.337L636.28,130.731c-0.068,0.196-0.282,0.299-0.478,0.231
			c-0.196-0.068-0.299-0.282-0.231-0.477C635.757,130.54,677.893,9.581,678.225,10.337L678.225,10.337z"/>
		<path style="fill:#FFFFFF;" d="M584.936,10.336L532.04,161.944c-0.068,0.195-0.282,0.299-0.478,0.23
			c-0.195-0.068-0.299-0.282-0.23-0.478C531.517,161.755,584.604,9.578,584.936,10.336L584.936,10.336z"/>
		<path style="fill:#FFFFFF;" d="M704.731,179.936l-86.924,248.595c-0.068,0.195-0.282,0.299-0.478,0.23
			c-0.196-0.068-0.299-0.282-0.23-0.478C617.283,428.345,704.399,179.175,704.731,179.936L704.731,179.936z"/>
		<path style="fill:#FFFFFF;" d="M637.402,96.06l-86.924,248.595c-0.068,0.195-0.282,0.299-0.478,0.23
			c-0.195-0.068-0.298-0.282-0.23-0.478C549.954,344.469,637.069,95.299,637.402,96.06L637.402,96.06z"/>
	</g>
	<g>
		<g>
			<path style="fill:#8EA4E7;" d="M750,500V261.151c-18.352,2.576-32.477,18.267-32.477,37.263c0,4.288,0.729,8.405,2.055,12.245
				c-28.314,2.219-52.361,19.554-64.017,43.911c-6.193-3.519-13.355-5.539-20.995-5.539c-20.815,0-38.118,14.927-41.747,34.62
				c-4.452-3.835-10.251-6.159-16.598-6.159c-8.857,0-16.644,4.525-21.19,11.374c-10.114-9.491-23.71-15.315-38.674-15.315
				c-20.574,0-38.578,10.992-48.47,27.42c-4.525-1.57-9.38-2.434-14.44-2.434c-8.568,0-16.559,2.455-23.324,6.687
				c-9.399-14.349-25.608-23.834-44.042-23.834c-16.979,0-32.071,8.05-41.693,20.532c-6.519-4.718-14.525-7.507-23.187-7.507
				c-7.621,0-14.736,2.158-20.777,5.889c-9.975-16.056-27.762-26.753-48.055-26.753c-12.024,0-23.163,3.764-32.326,10.163
				c-1.395,0.756-2.768,1.548-4.11,2.385c-10.117-10.03-24.061-16.232-39.461-16.232c-5.751,0-11.298,0.867-16.52,2.473
				c-2.498-16.681-16.932-29.476-34.369-29.476c-5.669,0-11.015,1.361-15.742,3.759c-8.434-25.699-32.688-44.266-61.298-44.266
				c-2.663,0-5.287,0.164-7.865,0.477C39.653,280.6,22.115,262.678,0,260.922V500H750z"/>
			<path style="fill:#6A7ED3;" d="M33.461,330.66l-0.836-0.549c7.811-11.919,7.558-27.114,7.555-27.267l1-0.023
				C41.184,302.977,41.447,318.475,33.461,330.66z"/>
			<path style="fill:#6A7ED3;" d="M92.469,371.901l-0.994-0.102c1.905-18.645,18.013-25.57,18.175-25.639l0.385,0.923
				C109.879,347.15,94.313,353.862,92.469,371.901z"/>
			<path style="fill:#6A7ED3;" d="M142.116,386.069l-0.851-0.523c5.786-9.432,18.016-13.513,18.534-13.682l0.311,0.951
				C159.986,372.855,147.708,376.955,142.116,386.069z"/>
			<path style="fill:#6A7ED3;" d="M28.452,454.552l-0.91-0.414c3.895-8.554,13.121-13.611,22.436-12.302
				c7.251,1.02,13.406,5.607,16.464,12.271l-0.908,0.418c-2.916-6.354-8.784-10.727-15.695-11.698
				C40.959,441.574,32.166,446.399,28.452,454.552z"/>
			<path style="fill:#6A7ED3;" d="M153.759,403.363c-3.814-12.888-15.873-21.889-29.323-21.889c-10.471,0-20.1,5.27-25.759,14.099
				l-0.841-0.539c5.843-9.117,15.788-14.559,26.6-14.559c13.891,0,26.342,9.296,30.282,22.605L153.759,403.363z"/>
			<path style="fill:#6A7ED3;" d="M0,341.56v1.015c5.609-1.008,31.274-4.216,43.303,18.667l0.885-0.465
				C31.985,337.562,6.159,340.488,0,341.56z"/>
			<path style="fill:#6A7ED3;" d="M35.405,372.06l-0.957-0.293c2.95-9.667,13.864-15.06,24.851-12.274l-0.246,0.969
				C49.879,358.139,38.524,361.839,35.405,372.06z"/>
			<path style="fill:#6A7ED3;" d="M89.564,440.504l-0.957-0.293c2.95-9.667,13.865-15.06,24.851-12.274l-0.246,0.969
				C104.037,426.581,92.683,430.282,89.564,440.504z"/>
			<path style="fill:#6A7ED3;" d="M0,403.831v0.999c4.664-0.137,26.884,0.386,32.56,22.028l0.967-0.254
				C27.681,404.315,4.932,403.695,0,403.831z"/>
			<path style="fill:#6A7ED3;" d="M50.408,442.361l-0.998-0.06c0.432-7.243,6.093-13.928,14.773-17.444
				c9.084-3.681,22.621-4.1,33.381,5.754l-0.676,0.738c-10.415-9.542-23.529-9.132-32.33-5.565
				C56.239,429.154,50.817,435.506,50.408,442.361z"/>
			<path style="fill:#6A7ED3;" d="M575.496,406.923c-6.102-7.041-15.713-13.9-20.899-17.362l0.555-0.832
				c5.229,3.49,14.922,10.41,21.101,17.54L575.496,406.923z"/>
			<path style="fill:#6A7ED3;" d="M555.296,421.713l-0.846-0.533c0.155-0.246,15.956-24.622,51.06-15.066l-0.262,0.965
				C570.846,397.719,555.449,421.472,555.296,421.713z"/>
			<path style="fill:#6A7ED3;" d="M721.536,406.401c-16.797-11.5-29.571-1.599-29.697-1.497l-0.625-0.781
				c0.133-0.106,13.461-10.476,30.886,1.452L721.536,406.401z"/>
			<path style="fill:#6A7ED3;" d="M633.07,377.772l-0.963-0.267c2.897-10.435,10.794-18.567,21.126-21.756
				c13.269-4.099,27.911,1.113,35.598,12.671l-0.832,0.555c-7.442-11.192-21.618-16.235-34.471-12.271
				C643.523,359.792,635.876,367.668,633.07,377.772z"/>
			<path style="fill:#6A7ED3;" d="M740.951,312.649c-9.49-1.997-21.234-1.495-21.351-1.492l-0.045-0.998
				c0.121-0.005,11.988-0.512,21.6,1.512L740.951,312.649z"/>
			<path style="fill:#6A7ED3;" d="M750,365.761c-5.027,0.235-35.608,2.966-43.097,34.43l0.972,0.232
				c7.312-30.718,37.168-33.426,42.125-33.662V365.761z"/>
			<path style="fill:#6A7ED3;" d="M645.8,442.783l-0.904-0.426c11.836-25.105,39.239-19.607,39.514-19.549l-0.207,0.979
				C683.934,423.728,657.294,418.403,645.8,442.783z"/>
			<path style="fill:#6A7ED3;" d="M750,438.144c-29.871-0.755-40.124,22.388-40.226,22.624l0.919,0.394
				c0.024-0.059,2.561-5.866,8.739-11.452c5.603-5.066,15.433-10.97,30.567-10.565V438.144z"/>
			<path style="fill:#6A7ED3;" d="M714.205,454.398c-5.175-6.995-15.884-7.766-15.992-7.773l0.064-0.998
				c0.458,0.029,11.275,0.803,16.732,8.175L714.205,454.398z"/>
			<path style="fill:#6A7ED3;" d="M654.735,430.996c-5.177-6.995-15.886-7.766-15.994-7.772l0.064-0.998
				c0.458,0.029,11.275,0.803,16.733,8.175L654.735,430.996z"/>
			<path style="fill:#6A7ED3;" d="M671.237,423.432c-0.388-4.622,3.445-8.51,3.608-8.673l0.707,0.707
				c-0.036,0.037-3.668,3.729-3.319,7.882L671.237,423.432z"/>
			<path style="fill:#6A7ED3;" d="M284.377,425.636l-0.99-0.139c2.446-17.435,16.651-25.551,16.794-25.631l0.488,0.873
				C300.531,400.818,286.753,408.707,284.377,425.636z"/>
			<path style="fill:#6A7ED3;" d="M234.88,425.651c-4.042-23.806-19.145-39.046-19.298-39.197l0.705-0.709
				c0.154,0.153,15.481,15.605,19.579,39.738L234.88,425.651z"/>
			<path style="fill:#6A7ED3;" d="M214.665,434.218l-0.685-0.729c0.172-0.161,17.498-15.999,46.737-5.188l-0.348,0.938
				c-14.966-5.534-26.593-3.888-33.711-1.531C218.943,430.263,214.706,434.179,214.665,434.218z"/>
			<path style="fill:#6A7ED3;" d="M146.772,418.577h-1c0-10.623,8.642-19.265,19.265-19.265c8.628,0,16.263,5.8,18.565,14.104
				l-0.963,0.268c-2.184-7.873-9.422-13.372-17.602-13.372C154.965,400.312,146.772,408.505,146.772,418.577z"/>
			<path style="fill:#6A7ED3;" d="M566.306,449.654l-0.984-0.17c2.197-12.676-4.397-25.378-16.036-30.889
				c-14.328-6.785-31.51-0.65-38.297,13.681l-0.904-0.428c7.024-14.829,24.801-21.179,39.629-14.157
				C561.758,423.394,568.581,436.538,566.306,449.654z"/>
			<path style="fill:#6A7ED3;" d="M413.406,425.729l-0.945-0.324c4.127-12.077,17.263-20.52,17.396-20.603l0.535,0.844
				C430.262,405.727,417.418,413.988,413.406,425.729z"/>
			<path style="fill:#6A7ED3;" d="M491.727,421.713c-8.753-14.209-23.869-20.218-24.021-20.277l0.362-0.932
				c0.155,0.06,15.577,6.182,24.511,20.684L491.727,421.713z"/>
			<path style="fill:#6A7ED3;" d="M532.998,449.801c-5.06-9.632-14.587-16.06-26.14-17.635c-10.818-1.469-21.483,1.798-27.823,8.54
				l-0.729-0.686c6.558-6.974,17.552-10.366,28.686-8.845c11.877,1.619,21.678,8.238,26.89,18.16L532.998,449.801z"/>
			<path style="fill:#6A7ED3;" d="M335.522,423.509l-0.975-0.223c2.634-11.543,9.36-21.546,9.428-21.646l0.828,0.56
				C344.737,402.3,338.113,412.154,335.522,423.509z"/>
			<path style="fill:#6A7ED3;" d="M350.6,438.247c-5.515-11.711-14.535-14.464-21.132-14.711c-7.941-0.291-14.895,2.93-15.71,4.371
				l-0.871-0.492c1.048-1.85,8.355-5.188,16.618-4.878c6.874,0.257,16.27,3.118,21.999,15.284L350.6,438.247z"/>
		</g>
		<g>
			<path style="fill:#FFFFFF;" d="M750,500V337.802c-22.115,1.757-39.653,19.678-40.68,41.912c-2.578-0.312-5.202-0.477-7.865-0.477
				c-28.61,0-52.864,18.567-61.298,44.266c-4.727-2.398-10.073-3.759-15.742-3.759c-17.437,0-31.871,12.795-34.369,29.476
				c-5.222-1.606-10.769-2.473-16.52-2.473c-15.4,0-29.345,6.202-39.461,16.232c-1.342-0.837-2.715-1.629-4.11-2.385
				c-9.163-6.399-20.302-10.163-32.326-10.163c-20.293,0-38.08,10.697-48.055,26.753c-6.04-3.731-13.155-5.889-20.777-5.889
				c-8.662,0-16.668,2.789-23.187,7.507c-9.622-12.482-24.713-20.532-41.693-20.532c-18.434,0-34.643,9.486-44.042,23.834
				c-6.765-4.232-14.756-6.687-23.325-6.687c-5.059,0-9.914,0.864-14.44,2.434c-9.892-16.429-27.895-27.42-48.47-27.42
				c-14.964,0-28.561,5.823-38.674,15.315c-4.546-6.848-12.333-11.374-21.19-11.374c-6.347,0-12.146,2.325-16.598,6.16
				c-3.629-19.694-20.933-34.621-41.747-34.621c-7.64,0-14.801,2.021-20.995,5.539c-11.656-24.356-35.703-41.692-64.017-43.911
				c1.326-3.84,2.055-7.957,2.055-12.245c0-18.996-14.125-34.687-32.477-37.263V500H750z"/>
			<path style="fill:#C5D7FF;" d="M716.539,407.541l0.836-0.549c-7.811-11.919-7.558-27.114-7.555-27.267l-1-0.023
				C708.816,379.858,708.553,395.356,716.539,407.541z"/>
			<path style="fill:#C5D7FF;" d="M657.531,448.782l0.994-0.102c-1.905-18.645-18.013-25.57-18.175-25.639l-0.385,0.923
				C640.121,424.031,655.688,430.743,657.531,448.782z"/>
			<path style="fill:#C5D7FF;" d="M607.884,462.95l0.851-0.523c-5.786-9.432-18.016-13.513-18.534-13.682l-0.31,0.951
				C590.014,449.736,602.292,453.836,607.884,462.95z"/>
			<path style="fill:#C5D7FF;" d="M596.241,480.244c3.814-12.888,15.873-21.889,29.323-21.889c10.471,0,20.1,5.271,25.759,14.099
				l0.841-0.539c-5.843-9.117-15.788-14.56-26.6-14.56c-13.891,0-26.342,9.296-30.282,22.605L596.241,480.244z"/>
			<path style="fill:#C5D7FF;" d="M750,418.441v1.015c-5.609-1.008-31.274-4.216-43.303,18.667l-0.884-0.465
				C718.015,414.443,743.841,417.37,750,418.441z"/>
			<path style="fill:#C5D7FF;" d="M714.595,448.941l0.957-0.293c-2.95-9.667-13.864-15.06-24.851-12.274l0.246,0.969
				C700.122,435.02,711.476,438.72,714.595,448.941z"/>
			<path style="fill:#C5D7FF;" d="M718.662,500c7.11-17.962,26.959-18.417,31.338-18.289v-0.999
				c-4.66-0.129-25.216,0.428-32.402,19.288H718.662z"/>
			<path style="fill:#C5D7FF;" d="M28.464,483.282c16.797-11.5,29.571-1.599,29.697-1.497l0.625-0.781
				c-0.133-0.106-13.461-10.477-30.886,1.452L28.464,483.282z"/>
			<path style="fill:#C5D7FF;" d="M116.93,454.653l0.963-0.268c-2.897-10.435-10.794-18.567-21.126-21.756
				c-13.269-4.099-27.911,1.113-35.598,12.671l0.832,0.555c7.442-11.192,21.618-16.235,34.471-12.27
				C106.477,436.673,114.124,444.549,116.93,454.653z"/>
			<path style="fill:#C5D7FF;" d="M9.049,389.53c9.49-1.997,21.234-1.495,21.351-1.492l0.045-0.998
				c-0.121-0.005-11.988-0.512-21.601,1.512L9.049,389.53z"/>
			<path style="fill:#C5D7FF;" d="M0,442.642c5.027,0.235,35.608,2.966,43.097,34.43l-0.972,0.232
				C34.813,446.587,4.956,443.879,0,443.643V442.642z"/>
			<path style="fill:#C5D7FF;" d="M603.228,495.458h1c0-10.623-8.642-19.265-19.265-19.265c-8.628,0-16.263,5.8-18.565,14.104
				l0.963,0.268c2.184-7.873,9.422-13.372,17.603-13.372C595.035,477.193,603.228,485.386,603.228,495.458z"/>
			<path style="fill:#C5D7FF;" d="M184.126,494.539c-8.374-17.408-23.707-10.581-24.355-10.281l-0.42-0.908
				c0.168-0.075,16.87-7.553,25.676,10.756L184.126,494.539z"/>
			<path style="fill:#C5D7FF;" d="M180.215,487.471l-0.945-0.326c4.365-12.679,15.272-21.697,15.382-21.786l0.633,0.773
				C195.177,466.221,184.486,475.067,180.215,487.471z"/>
			<path style="fill:#C5D7FF;" d="M265.996,491.392l-0.838-0.547c5.815-8.909,16.657-13.412,16.766-13.457l0.379,0.926
				C282.196,478.357,271.636,482.749,265.996,491.392z"/>
			<path style="fill:#C5D7FF;" d="M329.825,493.054c-3.41-5.711-10.168-10.492-10.235-10.54l0.574-0.818
				c0.284,0.199,6.998,4.948,10.521,10.845L329.825,493.054z"/>
			<path style="fill:#C5D7FF;" d="M397.81,488.54l-0.873-0.486c2.988-5.364,8.145-9.472,8.364-9.644l0.619,0.785
				C405.869,479.236,400.7,483.354,397.81,488.54z"/>
			<path style="fill:#C5D7FF;" d="M405.223,494.866c-4.979-6.131-10.979-7.753-18.35-4.958l-0.355-0.936
				c7.714-2.927,14.27-1.156,19.48,5.263L405.223,494.866z"/>
			<path style="fill:#C5D7FF;" d="M442.997,491.495l-0.941-0.34c2.887-7.998,7.064-14.191,7.105-14.253l0.828,0.563
				C449.947,477.525,445.838,483.62,442.997,491.495z"/>
			
				<rect x="540.728" y="459.338" transform="matrix(0.5892 -0.808 0.808 0.5892 -155.9564 629.677)" style="fill:#C5D7FF;" width="1.001" height="17.728"/>
		</g>
	</g>
	<g>
		
			<ellipse transform="matrix(0.7071 -0.7071 0.7071 0.7071 -9.8531 121.2285)" style="fill:#FFBE0D;" cx="141.409" cy="72.508" rx="38.348" ry="38.348"/>
		<g>
			<path style="fill:#8EA4E7;" d="M660.812,70.606c-4.915,0-9.479,1.501-13.26,4.069c-4.033-14.238-17.117-24.673-32.647-24.673
				c-16.054,0-29.494,11.15-33.024,26.125c-1.543-0.358-3.149-0.554-4.801-0.554c-11.49,0-20.833,9.163-21.138,20.579h128.421
				c0.051-0.631,0.084-1.267,0.084-1.911C684.448,81.188,673.866,70.606,660.812,70.606z"/>
			<path style="fill:#8EA4E7;" d="M723.131,88.702c-2.05,0-3.92,0.756-5.358,1.998c-0.703-6.525-6.224-11.606-12.935-11.606
				c-7.187,0-13.014,5.827-13.014,13.014c0,1.406,0.23,2.757,0.642,4.026h38.836C730.91,91.965,727.403,88.702,723.131,88.702z"/>
			<path style="fill:#6A7ED3;" d="M594.023,86.107c-4.183-7.558-12.173-9.475-12.254-9.493l0.224-0.975
				c0.345,0.079,8.5,2.023,12.905,9.983L594.023,86.107z"/>
			<path style="fill:#6A7ED3;" d="M590.408,90.15l-0.844-0.536c2.396-3.771,6.247-5.595,11.422-5.418l-0.033,0.999
				C596.082,85.039,592.631,86.652,590.408,90.15z"/>
			<path style="fill:#6A7ED3;" d="M638.414,89.463l-0.959-0.281c2.965-10.122,9.535-14.729,9.814-14.919l0.566,0.824
				C647.77,75.132,641.275,79.7,638.414,89.463z"/>
			<path style="fill:#6A7ED3;" d="M715.909,94.463l-0.965-0.264c0.605-2.218,2.425-3.811,2.502-3.877l0.654,0.756
				C718.083,91.092,716.432,92.544,715.909,94.463z"/>
		</g>
		<g>
			<path style="fill:#8EA4E7;" d="M0,118.948h233.003c-0.505-10.85-8.833-19.487-19.064-19.487c-3.197,0-6.205,0.854-8.853,2.343
				c-1.779-17.448-15.546-31.026-32.27-31.026c-12.911,0-24.061,8.091-29.294,19.807c-5.143-6.315-12.682-10.324-21.108-10.324
				c-3.451,0-6.742,0.701-9.796,1.925C108.029,61.256,90.535,45.67,69.639,45.67c-17.047,0-31.828,10.377-39.19,25.562
				c-6.564-6.359-15.257-10.233-24.794-10.233c-1.923,0-3.811,0.158-5.655,0.461V118.948z"/>
			<path style="fill:#6A7ED3;" d="M41.741,90.366c-3.048-11.529-11.492-18.667-11.578-18.738l0.572-0.791
				c0.087,0.072,8.768,7.4,11.904,19.255L41.741,90.366z"/>
			<path style="fill:#6A7ED3;" d="M31.34,99.589l-0.778-0.552c5.576-9.041,17.886-13.387,28.023-9.9l-0.284,0.953
				C48.536,86.729,36.696,90.902,31.34,99.589z"/>
			<path style="fill:#6A7ED3;" d="M140.109,105.914l-0.931-0.067c0.498-7.95,3.891-15.408,3.925-15.482l0.836,0.443
				C143.906,90.881,140.593,98.168,140.109,105.914z"/>
			<path style="fill:#6A7ED3;" d="M145.031,109.617c-1.27-1.823-3.391-2.911-5.675-2.911c-0.002,0-0.004,0-0.006,0
				c-2.107,0.002-3.965,0.937-5.095,2.567l-0.749-0.599c1.309-1.886,3.438-2.968,5.843-2.97c0.003,0,0.005,0,0.007,0
				c2.577,0,4.977,1.238,6.422,3.313L145.031,109.617z"/>
			<path style="fill:#6A7ED3;" d="M99.849,93.467l-0.792-0.529c4.732-8.158,13.065-11.106,13.418-11.228l0.286,0.953
				C112.676,82.693,104.393,85.63,99.849,93.467z"/>
			<path style="fill:#6A7ED3;" d="M197.179,112.463l-0.88-0.334c2.503-7.593,8.338-10.649,8.586-10.776l0.402,0.904
				C205.229,102.286,199.547,105.274,197.179,112.463z"/>
			<path style="fill:#8EA4E7;" d="M355.935,118.948c-0.583-8.229-7.426-14.728-15.803-14.728c-3.556,0-6.828,1.185-9.473,3.161
				c0.01-0.312,0.024-0.623,0.024-0.937c0-16.291-13.206-29.497-29.497-29.497c-13.478,0-24.836,9.043-28.359,21.39
				c-2.707-1.38-5.763-2.174-9.009-2.174c-10.984,0-19.888,8.904-19.888,19.888c0,0.986,0.096,1.948,0.234,2.895H355.935z"/>
			<path style="fill:#6A7ED3;" d="M282.238,109.894c-2.559-8.274-9.513-11.094-9.582-11.121l0.341-0.868
				c0.303,0.119,7.442,3.016,10.132,11.713L282.238,109.894z"/>
			<path style="fill:#6A7ED3;" d="M326.086,114.942l-0.876-0.319c1.538-4.223,4.986-7.448,5.131-7.583l0.634,0.684
				C330.941,107.756,327.545,110.936,326.086,114.942z"/>
			<path style="fill:#6A7ED3;" d="M277.341,114.603l-0.791-0.494c2.424-3.889,8.589-6.892,15.236-4.798l-0.281,0.89
				C285.306,108.246,279.58,111.011,277.341,114.603z"/>
		</g>
	</g>
	<g>
		<defs>
			<rect id="SVGID_1_" x="500.823" y="51.329" width="248.471" height="387.541"/>
		</defs>
		<clipPath id="SVGID_00000072243649351652608470000004451984210179411075_">
			<use xlink:href="#SVGID_1_"  style="overflow:visible;"/>
		</clipPath>
		<g style="clip-path:url(#SVGID_00000072243649351652608470000004451984210179411075_);">
			<path style="fill:#5272C0;" d="M753.415,360.892c-0.274,2.495-26.73,2.822-26.456,0.327
				C727.232,358.725,753.688,358.397,753.415,360.892z"/>
			<path style="opacity:0.22;fill:#8EA4E7;" d="M816.021,361.796c0,2.717-20.833,4.92-46.532,4.92
				c-25.699,0-46.532-2.203-46.532-4.92c0-2.717,20.833-4.92,46.532-4.92C795.188,356.876,816.021,359.079,816.021,361.796z"/>
			<g>
				<g>
					<path style="fill:#43416D;" d="M639.053,266.39c-7.852,0-18.268-3.005-27.613-15.503l3.404-2.546
						c17.616,23.559,38.698,10.029,39.587,9.441l2.356,3.539c-0.257,0.171-6.398,4.209-15.072,4.953
						C640.867,266.348,639.977,266.39,639.053,266.39z"/>
					<path style="fill:#FFFFFF;" d="M615.584,252.703c-3.354,2.505-6.291,3.33-13.909-4.663c-6.836-6.764,5.836-16.628,13.089-6.852
						c0,0-1.436-4.351,0.658-4.456C617.518,236.628,622.903,247.907,615.584,252.703z"/>
					<path style="fill:#C5D7FF;" d="M613.403,247.802c-2.552-4.041,1.064-6.921,1.101-6.95l0.522,0.671
						c-0.125,0.098-3.04,2.443-0.904,5.825L613.403,247.802z"/>
					<g>
						<polygon style="fill:#FFBE0D;" points="624.268,183.895 592.951,183.895 572.11,235.91 599.304,235.91 586.041,276.683 
							637.642,213.967 610.672,213.967 						"/>
						
							<rect x="603.878" y="217.873" transform="matrix(0.4308 -0.9025 0.9025 0.4308 149.4878 673.5025)" style="fill:#D28600;" width="9.497" height="0.76"/>
						<rect x="599.304" y="235.53" style="fill:#D28600;" width="7.704" height="0.76"/>
					</g>
					<path style="fill:#FFFFFF;" d="M617.641,238.995c0,0-1.251-2.941-2.784-2.406c-1.41,0.47,0.438,5.269,0.438,5.269
						L617.641,238.995z"/>
				</g>
				<g>
					<path style="fill:#43416D;" d="M836.214,212.516c-1.128,0-1.866-0.05-1.998-0.06l0.307-4.24c0.001,0,0.001,0,0.002,0l0,0
						c3.679,0.259,13.773-0.198,16.361-5.38c1.262-2.527,0.175-4.708-1.704-8.057c-1.995-3.559-4.479-7.988-1.059-13.006
						l3.512,2.394c-1.847,2.71-0.783,4.898,1.255,8.533c1.841,3.282,4.131,7.366,1.799,12.036
						C851.187,211.746,840.663,212.516,836.214,212.516z"/>
					<path style="fill:#FFFFFF;" d="M848.895,184.1c-5.718-3.021-6.021-7.906-0.444-14.996c5.975-6.225,13.834,3.675,13.056,7.911
						C860.513,181.684,853.206,186.223,848.895,184.1z"/>
					<g>
						<polygon style="fill:#43416D;" points="846.145,65.353 847.13,59.135 848.416,59.135 849.324,65.303 						"/>
						<g>
							<rect x="846.239" y="70.087" style="fill:#FFFFFF;" width="2.551" height="98.336"/>
							<path style="fill:#43416D;" d="M854.001,179.619c-4.749,0-8.613-3.864-8.613-8.613v-13.619h4.251v13.619
								c0,2.405,1.956,4.361,4.362,4.361c2.405,0,4.362-1.956,4.362-4.361v-3.505h4.251v3.505
								C862.614,175.755,858.75,179.619,854.001,179.619z"/>
						</g>
						<g>
							<path style="fill:#FFBE0D;" d="M751.111,112.821c0,0,25.666-47.539,96.402-47.539s96.402,47.539,96.402,47.539
								c-11.623-3.316-21.23-3.699-28.009,0c-15.377-3.489-28.89-3.701-40.177,0c-18.461-3.515-37.273-3.515-56.434,0
								c-10.493-3.477-23.81-3.564-40.176,0C772.994,109.212,763.596,109.318,751.111,112.821z"/>
							<path style="fill:#D28600;" d="M915.51,112.973c-0.046-0.118-4.659-11.968-15.316-23.658
								c-9.817-10.77-26.925-23.608-52.68-23.608c-25.769,0-42.883,12.851-52.702,23.631c-10.648,11.69-15.249,23.517-15.295,23.635
								l-0.794-0.304c0.046-0.12,4.705-12.097,15.46-23.904c9.934-10.907,27.251-23.908,53.331-23.908
								c26.079,0,43.395,13.001,53.33,23.908c10.755,11.808,15.414,23.785,15.46,23.904L915.51,112.973z"/>
							<path style="fill:#D28600;" d="M875.311,112.888c-0.075-0.472-7.691-47.181-27.797-47.181
								c-20.106,0-27.723,46.709-27.797,47.181l-0.84-0.133c0.019-0.119,1.936-12.064,6.367-23.853
								c5.995-15.955,13.489-24.045,22.271-24.045c8.782,0,16.275,8.09,22.27,24.045c4.43,11.789,6.348,23.733,6.367,23.853
								L875.311,112.888z"/>
						</g>
					</g>
					<path style="fill:#FFFFFF;" d="M850.627,167.558c0,0-4.042,4.952-0.187,7.858c3.855,2.906,7.709-3.222,7.709-3.222
						L850.627,167.558z"/>
				</g>
				<g>
					<g>
						<rect x="743.292" y="316.986" style="fill:#43416D;" width="4.251" height="27.175"/>
						<path style="fill:#FFBE0D;" d="M738.959,343.114l13.081,1.18c0,0-0.798,14.111-2.666,15.888
							c-1.868,1.776-18.362,1.834-19.428,0.504c-1.066-1.33-1.603-7.145,9.175-7.786L738.959,343.114z"/>
						<path style="fill:#D28600;" d="M743.78,356.281c-1.539-2.727-4.651-2.953-4.685-2.956l0.051-0.849
							c0.146,0.016,3.6,0.242,5.374,3.387L743.78,356.281z"/>
					</g>
					<g>
						
							<rect x="790.858" y="307.958" transform="matrix(0.9316 -0.3635 0.3635 0.9316 -62.6373 310.2828)" style="fill:#43416D;" width="4.252" height="27.174"/>
						<path style="fill:#FFBE0D;" d="M803.878,330.837l-12.235,4.775c0,0,4.695,13.331,6.984,14.517
							c2.289,1.186,18.147-3.351,18.801-4.924c0.654-1.574-0.449-7.309-10.98-4.923L803.878,330.837z"/>
						<path style="fill:#D28600;" d="M802.913,344.824l-0.827-0.195c0.828-3.513,4.082-4.7,4.22-4.749l0.285,0.801
							C806.561,340.692,803.633,341.772,802.913,344.824z"/>
					</g>
				</g>
				<g>
					<g>
						<path style="fill:#FFFFFF;" d="M832.349,203.114c3.337-3.773,5.166-8.863,4.651-14.272
							c-0.987-10.361-10.186-17.961-20.547-16.975c-1.635,0.156-3.201,0.517-4.675,1.054c-3.898-15.866-18.933-26.9-35.682-25.306
							c-6.733,0.641-12.804,3.24-17.718,7.172c-5.171-9.537-15.687-15.57-27.168-14.477c-14.19,1.351-24.87,13.114-25.226,27.013
							c-4.201-3.089-9.508-4.708-15.108-4.174c-12.095,1.152-20.966,11.89-19.814,23.985c0.093,0.979,0.255,1.934,0.47,2.867
							c-0.409,0.022-0.819,0.047-1.231,0.086c-16.384,1.56-28.401,16.106-26.841,32.49c0.83,8.714,5.333,16.192,11.833,21.05
							c-4.42,2.876-7.136,8.042-6.601,13.656c0.68,7.139,6.382,12.578,13.278,13.182c-0.788,3.613-1.044,7.407-0.675,11.286
							c1.917,20.132,19.791,34.898,39.923,32.982c4.391-0.418,8.526-1.596,12.289-3.39c5.853,9.76,16.957,15.832,29.041,14.682
							c10.203-0.971,18.743-6.872,23.507-15.118c4.635,3.549,10.566,5.427,16.836,4.83c10.821-1.03,19.268-9.106,21.25-19.257
							c2.561,0.326,5.195,0.386,7.873,0.132c19.492-1.856,33.789-19.162,31.933-38.654c-0.531-5.58-2.333-10.731-5.085-15.202
							c5.856-4.691,9.312-12.144,8.548-20.171C846.538,213.441,840.437,206.061,832.349,203.114z"/>
						<path style="fill:#C5D7FF;" d="M692.727,196.823c-8.969-7.426-21.036-6.409-21.158-6.399l-0.078-0.847
							c0.122-0.01,12.532-1.066,21.779,6.59L692.727,196.823z"/>
						<path style="fill:#C5D7FF;" d="M713.112,311.502c-2.281-5.564-3.349-11.148-3.172-16.597l0.85,0.028
							c-0.172,5.327,0.874,10.794,3.109,16.246L713.112,311.502z"/>
						<path style="fill:#C5D7FF;" d="M709.554,295.284c-3.617,0-7.03-1.537-9.636-4.344l0.623-0.578
							c2.498,2.689,5.803,4.106,9.237,4.07c3.994-0.075,7.91-2.11,11.027-5.731l0.644,0.555c-3.277,3.806-7.417,5.947-11.656,6.025
							C709.714,295.283,709.633,295.284,709.554,295.284z"/>
						<path style="fill:#C5D7FF;" d="M764.75,311.496c-3.51,0-6.846-1.453-9.444-4.127l0.609-0.593c2.557,2.632,5.862,4,9.326,3.86
							c3.992-0.165,7.861-2.288,10.897-5.978l0.656,0.54c-3.19,3.88-7.281,6.113-11.517,6.288
							C765.102,311.493,764.926,311.496,764.75,311.496z"/>
						<path style="fill:#C5D7FF;" d="M659.136,255.562c-3.193-3.878-4.597-8.322-3.953-12.513c0.562-3.661,2.679-6.855,5.96-8.991
							l0.463,0.712c-3.075,2.003-5.057,4.988-5.583,8.408c-0.607,3.948,0.732,8.154,3.769,11.843L659.136,255.562z"/>
						<path style="fill:#C5D7FF;" d="M690.932,202.424c-0.035-4.694,2.776-7.959,8.355-9.704l0.254,0.811
							c-5.253,1.644-7.792,4.551-7.759,8.887L690.932,202.424z"/>
						<path style="fill:#C5D7FF;" d="M815.452,203.766l-0.246-0.814c8.892-2.683,17.181-0.27,17.263-0.246l-0.242,0.814
							C832.147,203.497,824.091,201.159,815.452,203.766z"/>
						<path style="fill:#C5D7FF;" d="M817.521,213.129l-0.837-0.146c2.096-11.984-9.43-14.413-9.922-14.511l0.166-0.833
							C807.056,197.663,819.758,200.337,817.521,213.129z"/>
						<path style="fill:#C5D7FF;" d="M804.062,296.895c-6.722-1.276-9.684-3.739-9.807-3.843l0.55-0.648
							c0.028,0.024,2.938,2.427,9.415,3.657L804.062,296.895z"/>
						<path style="fill:#C5D7FF;" d="M838.51,242.995c-0.026-0.038-2.668-3.85-5.56-6.138l0.528-0.667
							c2.995,2.369,5.623,6.163,5.733,6.323L838.51,242.995z"/>
						<path style="fill:#C5D7FF;" d="M749.38,167.239l-0.805-0.274c2.762-8.109,9.297-12.359,9.573-12.536l0.458,0.716
							C758.541,155.187,752.043,159.421,749.38,167.239z"/>
						<path style="fill:#C5D7FF;" d="M738.797,174.825l-0.784-0.33c1.715-4.069,5.781-6.988,10.609-7.618
							c5.375-0.7,10.532,1.576,14.146,6.248l-0.672,0.521c-3.424-4.428-8.303-6.587-13.363-5.925
							C744.202,168.311,740.396,171.033,738.797,174.825z"/>
						<path style="fill:#C5D7FF;" d="M812.771,180.71c-0.204-2.708-1.394-7.639-1.406-7.688l0.827-0.2
							c0.049,0.205,1.217,5.047,1.428,7.824L812.771,180.71z"/>
						<path style="fill:#C5D7FF;" d="M662.315,270.896c-0.215,0-0.34-0.006-0.367-0.008l0.042-0.849
							c0.038-0.001,3.789,0.156,8.756-1.606l0.284,0.8C666.744,270.755,663.397,270.896,662.315,270.896z"/>
						<path style="fill:#C5D7FF;" d="M742.677,261.725c-6.421,0-12.943-1.191-19.484-3.566l0.291-0.799
							c9.555,3.469,19.064,4.375,28.26,2.694c9.196-1.681,17.768-5.893,25.478-12.518l0.555,0.644
							c-7.827,6.725-16.534,11.001-25.88,12.71C748.854,261.448,745.777,261.725,742.677,261.725z"/>
					</g>
					<g>
						<g>
							<g>
								<path style="fill:#C5D7FF;" d="M738.173,216.375c0.84,4.597-2.205,9.004-6.802,9.844c-4.597,0.84-9.004-2.205-9.844-6.802
									c-0.84-4.597,2.205-9.004,6.802-9.844C732.925,208.733,737.333,211.778,738.173,216.375z"/>
								<path style="fill:#43416D;" d="M735.135,216.93c0.534,2.919-1.4,5.718-4.319,6.251c-2.919,0.534-5.718-1.4-6.251-4.319
									c-0.534-2.919,1.4-5.718,4.319-6.251C731.803,212.077,734.602,214.011,735.135,216.93z"/>
							</g>
							<g>
								<path style="fill:#C5D7FF;" d="M765.63,211.356c0.84,4.597-2.205,9.004-6.802,9.845c-4.597,0.84-9.004-2.205-9.844-6.802
									c-0.84-4.597,2.205-9.004,6.802-9.844C760.383,203.714,764.79,206.759,765.63,211.356z"/>
								<path style="fill:#43416D;" d="M762.593,211.911c0.534,2.919-1.4,5.718-4.319,6.251c-2.919,0.534-5.718-1.4-6.252-4.319
									c-0.534-2.919,1.4-5.718,4.319-6.252C759.26,207.059,762.059,208.992,762.593,211.911z"/>
							</g>
						</g>
						<g>
							<path style="fill:#43416D;" d="M744.011,235.681c-3.449,0-6.62-1.195-8.915-3.405l0.589-0.613
								c2.556,2.464,6.301,3.57,10.269,3.035c4.447-0.598,8.422-3.173,10.632-6.888l0.731,0.435
								c-2.341,3.936-6.547,6.663-11.249,7.296C745.375,235.635,744.688,235.681,744.011,235.681z"/>
							<path style="fill:#43416D;" d="M758.669,228.649c-1.599,0-2.837-1.013-3.349-2.82l0.819-0.231
								c0.491,1.737,1.773,2.512,3.423,2.077l0.216,0.822C759.394,228.6,759.022,228.649,758.669,228.649z"/>
							<path style="fill:#43416D;" d="M733.064,233.381l-0.088-0.845c1.7-0.178,2.622-1.357,2.467-3.154l0.847-0.073
								C736.486,231.593,735.25,233.154,733.064,233.381z"/>
						</g>
						<g>
							<path style="fill:#C5D7FF;" d="M720.889,229.236c0.193,1.058-1.305,2.217-3.348,2.591c-2.042,0.373-3.854-0.181-4.048-1.239
								c-0.193-1.057,1.306-2.217,3.348-2.591C718.883,227.623,720.695,228.178,720.889,229.236z"/>
							<path style="fill:#C5D7FF;" d="M777.096,218.961c0.193,1.058-1.305,2.217-3.348,2.591c-2.042,0.373-3.854-0.182-4.048-1.239
								c-0.193-1.057,1.306-2.217,3.348-2.591C775.09,217.349,776.903,217.904,777.096,218.961z"/>
						</g>
					</g>
				</g>
			</g>
		</g>
	</g>
	<ellipse style="opacity:0.22;fill:#8EA4E7;" cx="108.19" cy="482.921" rx="49.507" ry="5.234"/>
	<g>
		<defs>
			<rect id="SVGID_00000039827823331816899260000017567036001885609645_" x="1.186" y="157.033" width="302.643" height="342.915"/>
		</defs>
		<clipPath id="SVGID_00000132053282514408806600000000845659714504573614_">
			<use xlink:href="#SVGID_00000039827823331816899260000017567036001885609645_"  style="overflow:visible;"/>
		</clipPath>
		<g style="clip-path:url(#SVGID_00000132053282514408806600000000845659714504573614_);">
			<path style="fill:#5272C0;" d="M88.095,480.712c-0.275,2.504-26.834,2.833-26.56,0.329
				C61.81,478.536,88.37,478.208,88.095,480.712z"/>
			<g>
				<g>
					<path style="fill:#43416D;" d="M-26.712,385.841c-7.883,0-18.339-3.017-27.721-15.564l3.417-2.556
						c17.684,23.651,38.849,10.068,39.741,9.478l2.365,3.553c-0.258,0.172-6.422,4.225-15.13,4.973
						C-24.891,385.799-25.784,385.841-26.712,385.841z"/>
					<path style="fill:#FFFFFF;" d="M-50.273,372.101c-3.367,2.514-6.316,3.343-13.963-4.681c-6.862-6.791,5.859-16.693,13.14-6.879
						c0,0-1.442-4.368,0.661-4.473C-48.332,355.963-42.925,367.286-50.273,372.101z"/>
					<path style="fill:#C5D7FF;" d="M-52.462,367.181c-2.561-4.057,1.068-6.948,1.105-6.977l0.524,0.674
						c-0.126,0.098-3.051,2.452-0.908,5.848L-52.462,367.181z"/>
					<g>
						<polygon style="fill:#FFBE0D;" points="-41.555,303.025 -72.994,303.025 -93.916,355.243 -66.616,355.243 -79.931,396.174 
							-28.128,333.214 -55.204,333.215 						"/>
						
							<rect x="-62.025" y="337.136" transform="matrix(0.4308 -0.9025 0.9025 0.4308 -337.1882 140.4509)" style="fill:#D28600;" width="9.534" height="0.763"/>
						<rect x="-66.617" y="354.862" style="fill:#D28600;" width="7.734" height="0.763"/>
					</g>
					<path style="fill:#FFFFFF;" d="M-48.208,358.34c0,0-1.256-2.952-2.794-2.415c-1.416,0.472,0.439,5.289,0.439,5.289
						L-48.208,358.34z"/>
				</g>
				<g>
					<path style="fill:#43416D;" d="M171.217,331.758c-1.133,0-1.874-0.05-2.006-0.06l0.308-4.256c0.001,0,0.001,0,0.002,0l0,0
						c3.693,0.26,13.827-0.198,16.425-5.401c1.267-2.537,0.176-4.726-1.71-8.089c-2.003-3.573-4.497-8.019-1.064-13.056l3.526,2.403
						c-1.854,2.72-0.786,4.917,1.26,8.566c1.848,3.294,4.147,7.395,1.805,12.083C186.249,330.985,175.684,331.758,171.217,331.758z"
						/>
					<path style="fill:#FFFFFF;" d="M183.948,303.231c-5.74-3.033-6.044-7.937-0.446-15.055c5.998-6.25,13.888,3.689,13.107,7.942
						C195.611,300.805,188.276,305.362,183.948,303.231z"/>
					<g>
						<polygon style="fill:#43416D;" points="181.187,184.02 182.175,177.778 183.466,177.778 184.378,183.97 						"/>
						<g>
							<rect x="181.281" y="188.773" style="fill:#FFFFFF;" width="2.561" height="98.719"/>
							<path style="fill:#43416D;" d="M189.074,298.732c-4.768,0-8.646-3.879-8.646-8.646v-13.672h4.268v13.672
								c0,2.414,1.964,4.378,4.379,4.378c2.415,0,4.378-1.964,4.378-4.378v-3.518h4.268v3.518
								C197.72,294.853,193.842,298.732,189.074,298.732z"/>
						</g>
						<g>
							<path style="fill:#FFBE0D;" d="M85.783,231.674c0,0,25.766-47.725,96.778-47.725c71.012,0,96.778,47.725,96.778,47.725
								c-11.668-3.329-21.313-3.714-28.118,0c-15.437-3.502-29.002-3.715-40.333,0c-18.534-3.529-37.418-3.529-56.654,0
								c-10.534-3.491-23.903-3.578-40.333,0C107.75,228.051,98.316,228.157,85.783,231.674z"/>
							<path style="fill:#D28600;" d="M250.822,231.827c-0.046-0.119-4.678-12.015-15.375-23.75
								c-9.855-10.812-27.03-23.7-52.886-23.7c-25.869,0-43.05,12.901-52.907,23.723c-10.69,11.736-15.309,23.609-15.354,23.727
								l-0.797-0.305c0.046-0.12,4.724-12.144,15.52-23.997c9.973-10.949,27.357-24.002,53.538-24.002
								c26.181,0,43.564,13.052,53.538,24.002c10.797,11.854,15.475,23.877,15.52,23.997L250.822,231.827z"/>
							<path style="fill:#D28600;" d="M210.466,231.741c-0.075-0.474-7.721-47.365-27.905-47.365
								c-20.185,0-27.831,46.891-27.906,47.365l-0.843-0.133c0.019-0.12,1.944-12.111,6.392-23.946
								c6.019-16.018,13.541-24.139,22.358-24.139c8.816,0,16.338,8.122,22.357,24.139c4.448,11.835,6.372,23.826,6.392,23.946
								L210.466,231.741z"/>
						</g>
					</g>
					<path style="fill:#FFFFFF;" d="M185.686,286.624c0,0-4.057,4.971-0.188,7.888c3.87,2.917,7.739-3.235,7.739-3.235
						L185.686,286.624z"/>
				</g>
				<g>
					<g>
						<rect x="77.933" y="436.635" style="fill:#43416D;" width="4.268" height="27.281"/>
						<path style="fill:#FFBE0D;" d="M73.583,462.865l13.132,1.184c0,0-0.802,14.166-2.677,15.95s-18.434,1.841-19.504,0.506
							c-1.07-1.335-1.61-7.173,9.211-7.816L73.583,462.865z"/>
						<path style="fill:#D28600;" d="M78.423,476.083c-1.545-2.738-4.669-2.965-4.704-2.968l0.051-0.852
							c0.147,0.016,3.614,0.243,5.395,3.4L78.423,476.083z"/>
					</g>
					<g>
						
							<rect x="125.684" y="427.571" transform="matrix(0.9316 -0.3635 0.3635 0.9316 -151.6522 76.6552)" style="fill:#43416D;" width="4.268" height="27.28"/>
						<path style="fill:#FFBE0D;" d="M138.755,450.54l-12.283,4.793c0,0,4.714,13.383,7.011,14.574
							c2.298,1.191,18.218-3.364,18.874-4.944c0.656-1.58-0.451-7.337-11.023-4.943L138.755,450.54z"/>
						<path style="fill:#D28600;" d="M137.787,464.582l-0.83-0.196c0.831-3.527,4.098-4.719,4.236-4.768l0.286,0.804
							C141.448,460.433,138.509,461.517,137.787,464.582z"/>
					</g>
				</g>
				<g>
					<g>
						<path style="fill:#FFFFFF;" d="M167.337,322.319c3.35-3.787,5.186-8.897,4.669-14.328
							c-0.99-10.402-10.226-18.031-20.627-17.041c-1.641,0.156-3.213,0.519-4.693,1.058c-3.913-15.928-19.007-27.005-35.821-25.404
							c-6.759,0.643-12.854,3.253-17.787,7.2c-5.191-9.574-15.748-15.63-27.273-14.533c-14.245,1.356-24.967,13.165-25.324,27.118
							c-4.218-3.101-9.545-4.726-15.167-4.191C13.17,283.355,4.264,294.135,5.42,306.277c0.093,0.983,0.256,1.942,0.472,2.878
							c-0.411,0.022-0.822,0.047-1.236,0.086c-16.448,1.566-28.511,16.169-26.945,32.616c0.833,8.748,5.354,16.255,11.879,21.132
							c-4.437,2.887-7.163,8.074-6.627,13.709c0.682,7.167,6.407,12.627,13.33,13.233c-0.792,3.628-1.049,7.436-0.678,11.33
							c1.924,20.211,19.868,35.035,40.079,33.11c4.408-0.42,8.559-1.602,12.337-3.403c5.876,9.798,17.023,15.894,29.154,14.739
							c10.243-0.975,18.816-6.899,23.599-15.177c4.653,3.563,10.608,5.448,16.901,4.849c10.863-1.034,19.343-9.141,21.333-19.332
							c2.571,0.328,5.215,0.388,7.904,0.132c19.568-1.863,33.921-19.236,32.057-38.805c-0.533-5.602-2.342-10.773-5.105-15.261
							c5.879-4.709,9.348-12.191,8.581-20.25C181.582,332.686,175.457,325.278,167.337,322.319z"/>
						<path style="fill:#C5D7FF;" d="M27.171,316.004c-9.004-7.455-21.118-6.434-21.241-6.424l-0.078-0.85
							c0.122-0.01,12.58-1.07,21.864,6.616L27.171,316.004z"/>
						<path style="fill:#C5D7FF;" d="M47.635,431.129c-2.29-5.585-3.362-11.192-3.185-16.661l0.854,0.028
							c-0.173,5.348,0.878,10.836,3.121,16.31L47.635,431.129z"/>
						<path style="fill:#C5D7FF;" d="M44.064,414.848c-3.631,0-7.058-1.543-9.674-4.361l0.625-0.58
							c2.507,2.7,5.826,4.122,9.273,4.086c4.009-0.075,7.941-2.118,11.07-5.753l0.647,0.557c-3.29,3.821-7.446,5.97-11.701,6.049
							C44.224,414.847,44.143,414.848,44.064,414.848z"/>
						<path style="fill:#C5D7FF;" d="M99.475,431.124c-3.524,0-6.872-1.459-9.481-4.143l0.612-0.595
							c2.567,2.642,5.885,4.016,9.362,3.875c4.008-0.166,7.892-2.297,10.939-6.001l0.659,0.542
							c-3.202,3.895-7.309,6.136-11.562,6.312C99.828,431.12,99.651,431.124,99.475,431.124z"/>
						<path style="fill:#C5D7FF;" d="M-6.551,374.971c-3.206-3.893-4.615-8.354-3.968-12.561c0.564-3.676,2.689-6.882,5.983-9.026
							l0.465,0.715c-3.087,2.011-5.077,5.008-5.605,8.441c-0.609,3.964,0.735,8.186,3.783,11.89L-6.551,374.971z"/>
						<path style="fill:#C5D7FF;" d="M25.369,321.626c-0.035-4.712,2.787-7.99,8.388-9.742l0.255,0.814
							c-5.274,1.65-7.822,4.569-7.789,8.921L25.369,321.626z"/>
						<path style="fill:#C5D7FF;" d="M150.374,322.974l-0.247-0.817c8.927-2.693,17.248-0.271,17.331-0.247l-0.243,0.818
							C167.134,322.704,159.048,320.357,150.374,322.974z"/>
						<path style="fill:#C5D7FF;" d="M152.451,332.373l-0.84-0.147c2.104-12.03-9.466-14.47-9.961-14.568l0.167-0.837
							C141.946,316.847,154.697,319.531,152.451,332.373z"/>
						<path style="fill:#C5D7FF;" d="M138.939,416.466c-6.748-1.281-9.722-3.753-9.845-3.858l0.552-0.651
							c0.028,0.024,2.95,2.436,9.451,3.671L138.939,416.466z"/>
						<path style="fill:#C5D7FF;" d="M173.523,362.355c-0.026-0.038-2.678-3.865-5.582-6.161l0.53-0.67
							c3.007,2.378,5.645,6.187,5.756,6.348L173.523,362.355z"/>
						<path style="fill:#C5D7FF;" d="M84.045,286.304l-0.809-0.275c2.773-8.14,9.333-12.407,9.611-12.585l0.46,0.719
							C93.241,274.205,86.718,278.456,84.045,286.304z"/>
						<path style="fill:#C5D7FF;" d="M73.421,293.92l-0.787-0.332c1.722-4.085,5.803-7.015,10.65-7.647
							c5.396-0.703,10.573,1.582,14.201,6.272l-0.675,0.523c-3.438-4.445-8.335-6.612-13.415-5.948
							C78.847,287.38,75.025,290.113,73.421,293.92z"/>
						<path style="fill:#C5D7FF;" d="M147.682,299.827c-0.205-2.718-1.4-7.669-1.412-7.718l0.83-0.201
							c0.049,0.205,1.222,5.067,1.434,7.855L147.682,299.827z"/>
						<path style="fill:#C5D7FF;" d="M-3.36,390.365c-0.216,0-0.342-0.006-0.368-0.008l0.042-0.852
							c0.038-0.001,3.803,0.157,8.79-1.613l0.285,0.803C1.086,390.224-2.273,390.365-3.36,390.365z"/>
						<path style="fill:#C5D7FF;" d="M77.316,381.158c-6.446,0-12.993-1.195-19.56-3.58l0.292-0.802
							c9.592,3.482,19.139,4.393,28.37,2.705c9.231-1.687,17.837-5.916,25.578-12.566l0.557,0.647
							c-7.858,6.751-16.599,11.044-25.981,12.76C83.516,380.88,80.427,381.158,77.316,381.158z"/>
					</g>
					<g>
						<g>
							<g>
								<path style="fill:#C5D7FF;" d="M72.794,335.632c0.843,4.615-2.214,9.039-6.828,9.883s-9.039-2.214-9.883-6.828
									c-0.844-4.615,2.214-9.039,6.828-9.883C67.526,327.96,71.951,331.017,72.794,335.632z"/>
								<path style="fill:#43416D;" d="M69.744,336.189c0.536,2.93-1.406,5.74-4.336,6.276c-2.931,0.536-5.74-1.406-6.276-4.336
									c-0.536-2.931,1.406-5.74,4.336-6.276C66.399,331.317,69.209,333.259,69.744,336.189z"/>
							</g>
							<g>
								<path style="fill:#C5D7FF;" d="M100.359,330.593c0.844,4.615-2.213,9.039-6.828,9.883c-4.615,0.843-9.039-2.214-9.883-6.828
									c-0.843-4.615,2.214-9.039,6.828-9.883C95.09,322.921,99.515,325.979,100.359,330.593z"/>
								<path style="fill:#43416D;" d="M97.309,331.151c0.536,2.93-1.406,5.74-4.336,6.276c-2.93,0.536-5.74-1.406-6.276-4.336
									c-0.536-2.93,1.406-5.74,4.336-6.276C93.964,326.279,96.773,328.22,97.309,331.151z"/>
							</g>
						</g>
						<g>
							<path style="fill:#43416D;" d="M78.655,355.013c-3.462,0-6.646-1.199-8.95-3.418l0.592-0.615
								c2.566,2.473,6.326,3.584,10.309,3.047c4.464-0.6,8.454-3.186,10.673-6.915l0.733,0.437
								c-2.351,3.951-6.572,6.689-11.293,7.324C80.025,354.966,79.335,355.013,78.655,355.013z"/>
							<path style="fill:#43416D;" d="M93.37,347.954c-1.605,0-2.848-1.017-3.362-2.831l0.822-0.232
								c0.493,1.744,1.78,2.521,3.437,2.086l0.217,0.825C94.098,347.904,93.725,347.954,93.37,347.954z"/>
							<path style="fill:#43416D;" d="M67.665,352.704l-0.088-0.849c1.706-0.178,2.632-1.362,2.477-3.167l0.85-0.073
								C71.101,350.909,69.86,352.476,67.665,352.704z"/>
						</g>
						<g>
							<path style="fill:#C5D7FF;" d="M55.442,348.542c0.194,1.062-1.311,2.226-3.361,2.601c-2.05,0.375-3.869-0.182-4.063-1.244
								c-0.194-1.062,1.311-2.226,3.361-2.601C53.429,346.924,55.248,347.481,55.442,348.542z"/>
							<path style="fill:#C5D7FF;" d="M111.869,338.228c0.194,1.062-1.311,2.226-3.361,2.601c-2.05,0.375-3.869-0.182-4.063-1.244
								c-0.194-1.062,1.311-2.226,3.361-2.601C109.855,336.61,111.675,337.166,111.869,338.228z"/>
						</g>
					</g>
				</g>
			</g>
		</g>
	</g>
</g>
</svg>
